<?xml version="1.0" encoding="utf-8"?>
<!-- Generator: Adobe Illustrator 16.0.4, SVG Export Plug-In . SVG Version: 6.00 Build 0)  -->
<!DOCTYPE svg PUBLIC "-//W3C//DTD SVG 1.1//EN" "http://www.w3.org/Graphics/SVG/1.1/DTD/svg11.dtd">
<svg version="1.1" id="Layer_1" xmlns:ev="http://www.w3.org/2001/xml-events"
	 xmlns="http://www.w3.org/2000/svg" xmlns:xlink="http://www.w3.org/1999/xlink" x="0px" y="0px" width="16px" height="16px"
	 viewBox="-299.5 300.5 16 16" enable-background="new -299.5 300.5 16 16" xml:space="preserve">
<path fill="#878C90" d="M-283.594,306.196c-0.747,0.711-3.363,3.222-4.434,4.231c-0.212,0.199-0.383,0.141-0.383-0.149
	c0-0.521,0-1.571,0-2.781c-1.93-0.01-2.616,0.141-3.809,0.311c-1.01,0.141-1.909,0.619-2.394,0.949c0,0-0.808,0.451-1.121,1.901
	c0-0.9,0.02-2.011,0.333-2.751c0.303-0.75,0.767-1.391,1.394-1.921c0.626-0.54,1.303-1.021,2.222-1.33
	c0.909-0.301,2.149-0.15,3.373-0.15c0-1.161,0-2.181,0-2.7c0-0.28,0.191-0.4,0.383-0.221c0.99,0.92,3.656,3.472,4.425,4.241
	C-283.473,305.946-283.462,306.076-283.594,306.196z M-294.45,304.496c-0.354,0-4.04,0-4.04,0V314.5h10.1v-2.001l1.01-1v4.001
	H-299.5v-12.005c0,0,5.797,0,6.06,0C-293.945,303.765-294.198,304.126-294.45,304.496z"/>
</svg>
