<svg xmlns="http://www.w3.org/2000/svg" width="16" height="16" viewBox="0 0 16 16">
  <metadata><?xpacket begin="﻿" id="W5M0MpCehiHzreSzNTczkc9d"?>
<x:xmpmeta xmlns:x="adobe:ns:meta/" x:xmptk="Adobe XMP Core 5.6-c138 79.159824, 2016/09/14-01:09:01        ">
   <rdf:RDF xmlns:rdf="http://www.w3.org/1999/02/22-rdf-syntax-ns#">
      <rdf:Description rdf:about=""/>
   </rdf:RDF>
</x:xmpmeta>
                                                                                                    
                                                                                                    
                                                                                                    
                                                                                                    
                                                                                                    
                                                                                                    
                                                                                                    
                                                                                                    
                                                                                                    
                                                                                                    
                                                                                                    
                                                                                                    
                                                                                                    
                                                                                                    
                                                                                                    
                                                                                                    
                                                                                                    
                                                                                                    
                                                                                                    
                                                                                                    
                           
<?xpacket end="w"?></metadata>
<defs>
    <style>
      .cls-1 {
        fill-rule: evenodd;
      }
    </style>
  </defs>
  <path id="caret_func-16" class="cls-1" d="M3.22,7.587C4,6.8,9.665,1.224,10.762.219A0.53,0.53,0,0,1,11.634.2c0.358,0.453.879,1.033,1.16,1.39a0.674,0.674,0,0,1,0,1.011C11.687,3.63,7.719,7.416,7.561,7.592A0.624,0.624,0,0,0,7.382,8H3A0.685,0.685,0,0,1,3.22,7.587Zm0,0.826C4,9.2,9.665,14.776,10.762,15.781a0.53,0.53,0,0,0,.871.02c0.358-.453.879-1.033,1.16-1.39a0.674,0.674,0,0,0,0-1.011c-1.107-1.03-5.075-4.816-5.233-4.992A0.624,0.624,0,0,1,7.382,8H3A0.685,0.685,0,0,0,3.22,8.413Z"/>
</svg>
