<?xml version="1.0" encoding="utf-8"?>
<!-- Generator: Adobe Illustrator 18.1.1, SVG Export Plug-In . SVG Version: 6.00 Build 0)  -->
<svg version="1.1" id="Layer_1" xmlns="http://www.w3.org/2000/svg" xmlns:xlink="http://www.w3.org/1999/xlink" x="0px" y="0px"
	 width="16px" height="16px" viewBox="0 0 16 16" enable-background="new 0 0 16 16" xml:space="preserve">
<g>
	<path fill="#878C90" d="M2,5.96V4.37c0-0.74,0.58-1.33,1.31-1.33h1.7V1.33C5.02,0.6,5.49,0,6.09,0h3.84c0.59,0,1.07,0.6,1.07,1.33
		v1.71h1.68c0.74,0,1.31,0.6,1.31,1.33v1.58L2,5.96z M8.72,0.98H7.33C6.79,0.97,6.7,1.16,6.67,1.61c-0.03,0.35,0,1.34,0,1.34h2.66
		c0,0,0.02-0.99,0.02-1.34C9.35,1.26,9.35,0.94,8.72,0.98z M12,15.31c0,0.37-0.32,0.66-0.69,0.66H4.67c-0.37,0-0.69-0.3-0.69-0.66V7
		H12V15.31z"/>
</g>
</svg>
