<?xml version="1.0" encoding="UTF-8" standalone="no"?>
<svg width="16px" height="16px" viewBox="0 0 16 16" version="1.1" xmlns="http://www.w3.org/2000/svg" xmlns:xlink="http://www.w3.org/1999/xlink">
	<!-- Generator: Sketch 44 (41411) - http://www.bohemiancoding.com/sketch -->
	<title>icon/functional/reload/16</title>
	<desc>Created with Sketch.</desc>
	<defs></defs>
	<g id="Symbols" stroke="none" stroke-width="1" fill="none" fill-rule="evenodd">
		<g id="icon/functional/reload/16" fill-rule="nonzero" fill="#85bbe7">
			<path d="M15.9,8.9 C15,9.9 12.5,12.5 11.8,13.2 C11.7647123,13.2474023 11.7090948,13.2753353 11.65,13.2753353 C11.5909052,13.2753353 11.5352877,13.2474023 11.5,13.2 C10.8,12.5 8.3,9.9 7.4,8.9 C7.2,8.7 7.3,8.5 7.6,8.5 L11,8.5 C10.984436,8.32717817 11.0191633,8.15354169 11.1,8 C11.1178633,6.37444157 10.2671445,4.86283368 8.86830127,4.03458441 C7.46945801,3.20633514 5.73500781,3.18727525 4.31830127,3.98458441 C2.90159473,4.78189358 2.01786328,6.27444157 2,7.9 C1.99564809,10.2177774 3.70407253,12.1824655 6,12.5 C6.53653388,12.5362921 6.9637079,12.9634661 7,13.5 C6.97593062,14.0049253 6.59960905,14.4230604 6.1,14.5 C4.38441047,14.3664977 2.79403937,13.5504992 1.68504727,12.2347459 C0.576055177,10.9189925 0.041105787,9.21342433 0.2,7.5 C0.333502317,5.78441047 1.1495008,4.19403937 2.46525413,3.08504727 C3.78100746,1.97605518 5.48657567,1.44110579 7.2,1.6 C10.5860084,1.87668908 13.1946429,4.70270976 13.2,8.1 L13.2,8.6 L15.8,8.6 C16,8.5 16.1,8.7 15.9,8.9 Z" id="reload"></path>
		</g>
	</g>
</svg>
