<svg xmlns="http://www.w3.org/2000/svg" xmlns:xlink="http://www.w3.org/1999/xlink" preserveAspectRatio="xMidYMid" width="16" height="16" viewBox="0 0 16 16">
  <defs>
    <style>
      .cls-1 {
        fill: #999999;
        fill-rule: evenodd;
      }
    </style>
  </defs>
  <path d="M12.780,8.413 C12.001,9.201 6.335,14.776 5.238,15.781 C4.939,16.055 4.632,16.137 4.366,15.801 C4.008,15.348 3.487,14.768 3.206,14.411 C2.909,14.032 2.898,13.687 3.207,13.400 C4.313,12.370 8.282,8.584 8.439,8.408 C8.533,8.303 8.620,8.158 8.618,8.000 C8.620,7.842 8.533,7.697 8.439,7.592 C8.282,7.416 4.313,3.630 3.207,2.600 C2.898,2.312 2.909,1.968 3.206,1.589 C3.487,1.232 4.008,0.652 4.366,0.199 C4.632,-0.137 4.939,-0.055 5.238,0.219 C6.335,1.224 12.001,6.799 12.780,7.587 C12.907,7.716 12.991,7.861 13.000,8.000 C12.991,8.139 12.907,8.284 12.780,8.413 Z" class="cls-1"/>
</svg>
