<?xml version="1.0" encoding="utf-8"?>
<!DOCTYPE svg PUBLIC "-//W3C//DTD SVG 1.1//EN" "http://www.w3.org/Graphics/SVG/1.1/DTD/svg11.dtd">
<svg version="1.1" id="Layer_1" xmlns:ev="http://www.w3.org/2001/xml-events"
	 xmlns="http://www.w3.org/2000/svg" xmlns:xlink="http://www.w3.org/1999/xlink" x="0px" y="0px" width="18px" height="18px"
	 viewBox="-3.5 -5 32 32" enable-background="new -3.5 -5 32 32" xml:space="preserve">
<path fill="#6b7987" d="M23.331,21.908H8.677c-0.907,0-1.642-0.735-1.642-1.643v-0.625c0-0.908,0.735-1.644,1.642-1.644h14.654
	c0.907,0,1.644,0.735,1.644,1.644v0.625C24.975,21.173,24.238,21.908,23.331,21.908z M23.331,15.908H8.677
	c-0.907,0-1.642-0.735-1.642-1.643v-0.625c0-0.908,0.735-1.644,1.642-1.644h14.654c0.907,0,1.644,0.735,1.644,1.644v0.625
	C24.975,15.173,24.238,15.908,23.331,15.908z M23.331,9.908H8.677c-0.907,0-1.642-0.735-1.642-1.642V7.64
	c0-0.907,0.735-1.643,1.642-1.643h14.654c0.907,0,1.644,0.736,1.644,1.643v0.626C24.975,9.173,24.238,9.908,23.331,9.908z
	 M23.331,3.968H2.617c-0.907,0-1.643-0.736-1.643-1.643V1.694c0-0.908,0.736-1.643,1.643-1.643h20.714
	c0.907,0,1.644,0.735,1.644,1.643v0.631C24.975,3.232,24.238,3.968,23.331,3.968z"/>
</svg>
