<?xml version="1.0" encoding="UTF-8" standalone="no"?>
<svg width="16px" height="16px" viewBox="0 0 16 16" version="1.1" xmlns="http://www.w3.org/2000/svg" xmlns:xlink="http://www.w3.org/1999/xlink">
    <!-- Generator: Sketch 44 (41411) - http://www.bohemiancoding.com/sketch -->
    <title>icon/functional/plus/16</title>
    <desc>Created with Sketch.</desc>
    <defs></defs>
    <g id="Symbols" stroke="none" stroke-width="1" fill="none" fill-rule="evenodd">
        <g id="icon/functional/plus/16" fill-rule="nonzero" fill="#000000">
            <path d="M14.9985086,9.99957389 L9.99957389,9.99957389 L9.99957389,14.9985086 C10.0157922,15.2683145 9.91567703,15.5321468 9.7245511,15.7232728 C9.53342517,15.9143987 9.26959282,16.0145139 8.99978694,15.9982955 L7.00021306,15.9982955 C6.73040718,16.0145139 6.46657483,15.9143987 6.2754489,15.7232728 C6.08432297,15.5321468 5.98420777,15.2683145 6.00042611,14.9985086 L6.00042611,9.99957389 L1.0014914,9.99957389 C0.731685524,10.0157922 0.467853176,9.91567703 0.276727243,9.7245511 C0.0856013104,9.53342517 -0.014513889,9.26959282 0.00170445525,8.99978694 L0.00170445525,7.00021306 C-0.014513889,6.73040718 0.0856013104,6.46657483 0.276727243,6.2754489 C0.467853176,6.08432297 0.731685524,5.98420777 1.0014914,6.00042611 L6.00042611,6.00042611 L6.00042611,1.0014914 C5.98420777,0.731685524 6.08432297,0.467853176 6.2754489,0.276727243 C6.46657483,0.0856013104 6.73040718,-0.014513889 7.00021306,0.00170445525 L8.99978694,0.00170445525 C9.26959282,-0.014513889 9.53342517,0.0856013104 9.7245511,0.276727243 C9.91567703,0.467853176 10.0157922,0.731685524 9.99957389,1.0014914 L9.99957389,6.00042611 L14.9985086,6.00042611 C15.2683145,5.98420777 15.5321468,6.08432297 15.7232728,6.2754489 C15.9143987,6.46657483 16.0145139,6.73040718 15.9982955,7.00021306 L15.9982955,8.99978694 C16.0145139,9.26959282 15.9143987,9.53342517 15.7232728,9.7245511 C15.5321468,9.91567703 15.2683145,10.0157922 14.9985086,9.99957389 L14.9985086,9.99957389 Z" id="add-/-plus"></path>
        </g>
    </g>
</svg>