<svg xmlns="http://www.w3.org/2000/svg" width="192" height="192" viewBox="0 0 192 192">
	<g>
		<path fill="#E9EDF0" d="M160 72L160 104 152 104 164.04 120 176 104 168 104 168 72 160 72zM24 120L24 88 16 88 28.04 72 40 88 32 88 32 120 24 120zM72 16L104 16 104 8 120 20.04 104 32 104 24 72 24 72 16zM120 160L88 160 88 152 72 164.04 88 176 88 168 120 168 120 160zM0 0L56 0 56 56 0 56 0 0zM8 8L8 48 48 48 48 8 8 8zM136 0L192 0 192 56 136 56 136 0zM144 8L144 48 184 48 184 8 144 8zM0 136L56 136 56 192 0 192 0 136zM8 144L8 184 48 184 48 144 8 144zM136 136L192 136 192 192 136 192 136 136zM144 144L144 184 184 184 184 144 144 144z"/>
	</g>
</svg>
