<?xml version="1.0" encoding="utf-8"?>

<!DOCTYPE svg PUBLIC "-//W3C//DTD SVG 1.1//EN" "http://www.w3.org/Graphics/SVG/1.1/DTD/svg11.dtd">
<svg version="1.1" id="Layer_1" xmlns="http://www.w3.org/2000/svg" xmlns:xlink="http://www.w3.org/1999/xlink" x="0px" y="0px"
	 width="24px" height="24px" viewBox="0 0 24 24" enable-background="new 0 0 24 24" xml:space="preserve">
<g>
	<path fill="#F5A700" d="M16.39,13.95L20,22c0,0-3.38-1.38-3.47-1.34C16.45,20.69,15,24,15,24l-3.12-7.37L9,24
		c0,0-1.71-3.4-1.8-3.44C7.12,20.53,4,22,4,22l3.63-8.75c-1.58-1.37-2.58-3.4-2.58-5.67c0-4.14,3.32-7.5,7.43-7.5
		c4.1,0,7.43,3.36,7.43,7.5C19.9,10.27,18.5,12.62,16.39,13.95z M12.36,3.08c-2.5,0-4.52,2.02-4.52,4.5s2.03,4.5,4.52,4.5
		s4.52-2.02,4.52-4.5S14.86,3.08,12.36,3.08z"/>
	<path fill="#FECD3E" d="M12.36,4.08c1.94,0,3.52,1.57,3.52,3.5s-1.58,3.5-3.52,3.5s-3.52-1.57-3.52-3.5S10.42,4.08,12.36,4.08z"/>
</g>
</svg>
