<svg xmlns="http://www.w3.org/2000/svg" width="192" height="192" viewBox="0 0 192 192">
  <metadata><?xpacket begin="﻿" id="W5M0MpCehiHzreSzNTczkc9d"?>
<x:xmpmeta xmlns:x="adobe:ns:meta/" x:xmptk="Adobe XMP Core 5.6-c138 79.159824, 2016/09/14-01:09:01        ">
   <rdf:RDF xmlns:rdf="http://www.w3.org/1999/02/22-rdf-syntax-ns#">
      <rdf:Description rdf:about=""/>
   </rdf:RDF>
</x:xmpmeta>





















<?xpacket end="w"?></metadata>
<defs>
    <style>
      .cls-1 {
		fill: #E9EDF0;
        fill-rule: evenodd;
      }
    </style>
  </defs>
  <path id="pointers" class="cls-1" d="M96.015-.005A96.032,96.032,0,1,1-.012,96.027,96.03,96.03,0,0,1,96.015-.005ZM96.01,30A66.025,66.025,0,1,1,30.019,96.026,66.008,66.008,0,0,1,96.01,30Z"/>
  <path id="pointers_copy" data-name="pointers copy" class="cls-1" d="M102,108H84m0-18h51a9,9,0,1,1,0,18H84V90Z"/>
  <path id="pointers_copy_2" data-name="pointers copy 2" class="cls-1" d="M93,48a9,9,0,0,1,9,9v51H84V57A9,9,0,0,1,93,48Z"/>
</svg>
