<svg xmlns="http://www.w3.org/2000/svg" width="87" height="96" viewBox="0 0 87 96">
  <path fill="#E9EDF0" fill-rule="evenodd" d="M183.65,96 L105.35,96 C102.9488,96 101,94.0450909 101,91.6363636 L101,4.36363636 C101,1.95490909 102.9488,0 105.35,0 L183.65,0 C186.0512,0 188,1.95490909 188,4.36363636 L188,91.6363636 C188,94.0450909 186.0512,96 183.65,96 Z M131.45,13.0909091 L114.05,13.0909091 L114.05,30.5454545 L131.45,30.5454545 L131.45,13.0909091 Z M131.45,39.2727273 L114.05,39.2727273 L114.05,56.7272727 L131.45,56.7272727 L131.45,39.2727273 Z M131.45,65.4545455 L114.05,65.4545455 L114.05,82.9090909 L131.45,82.9090909 L131.45,65.4545455 Z M174.95,17.4545455 L140.15,17.4545455 L140.15,26.1818182 L174.95,26.1818182 L174.95,17.4545455 Z M174.95,43.6363636 L140.15,43.6363636 L140.15,52.3636364 L174.95,52.3636364 L174.95,43.6363636 Z M174.95,69.8181818 L140.15,69.8181818 L140.15,78.5454545 L174.95,78.5454545 L174.95,69.8181818 Z" transform="translate(-101)"/>
</svg>
