<svg xmlns="http://www.w3.org/2000/svg" width="24" height="24" viewBox="0 0 24 24">
  <g fill="none" fill-rule="evenodd">
    <rect width="24" height="24" fill="#007ebd" fill-rule="nonzero" rx="1"/>
    <path fill="#FFF" fill-rule="nonzero" d="M7,7 L8,7 L8,9 L7,9 L7,7 Z M7,14 L8,14 L8,16 L7,16 L7,14 Z M7,16 L14,16 L14,17 L7,17 L7,16 Z"/>
    <path fill="#FFF" d="M14 5L18 5C18.5522847 5 19 5.44771525 19 6L19 8C19 8.55228475 18.5522847 9 18 9L14 9C13.4477153 9 13 8.55228475 13 8L13 6C13 5.44771525 13.4477153 5 14 5zM14 6L14 8 18 8 18 6 14 6zM6 9L10 9C10.5522847 9 11 9.44771525 11 10L11 13C11 13.5522847 10.5522847 14 10 14L6 14C5.44771525 14 5 13.5522847 5 13L5 10C5 9.44771525 5.44771525 9 6 9zM6 10L6 13 10 13 10 10 6 10z"/>
    <path fill="#FFF" fill-rule="nonzero" d="M13.146,16.08 L15.569,13.657 C15.6761029,13.5497686 15.8214427,13.4895158 15.973,13.4895158 C16.1245573,13.4895158 16.2698971,13.5497686 16.377,13.657 L18.8,16.08 C18.9072314,16.1871029 18.9674842,16.3324427 18.9674842,16.484 C18.9674842,16.6355573 18.9072314,16.7808971 18.8,16.888 L16.376,19.31 C16.2688971,19.4172314 16.1235573,19.4774842 15.972,19.4774842 C15.8204427,19.4774842 15.6751029,19.4172314 15.568,19.31 L13.145,16.887 C12.9226304,16.663794 12.9230779,16.3026542 13.146,16.08 Z M14.357,16.48 L15.972,18.1 L17.587,16.48 L15.972,14.865 L14.357,16.48 Z M7,6 L14,6 L14,7 L7,7 L7,6 Z"/>
  </g>
</svg>
