<svg xmlns="http://www.w3.org/2000/svg" width="192" height="192" viewBox="0 0 192 192">
  <path fill="#E9EDF0" d="M98.3341199,166.558697 L25.0503459,166.558697 C20.1052459,166.425632 16.1263191,162.234202 16,157.024998 L16,83.2864772 C16.1263191,78.0772736 20.1052459,73.8858437 25.0503459,73.7527783 L49.0778127,73.7527783 L79.6727872,119.227678 L109.546938,73.7527783 L120.279206,73.7527783 C122.280073,73.3630349 124.337729,73.9975995 125.823166,75.4624909 C127.308604,76.9273823 128.045211,79.0484318 127.807813,81.1772518 L127.807813,115.538632 C111.525596,124.309168 98.063103,139.963239 97.9336621,161.412187 C97.7709256,163.312836 97.9330626,164.963866 98.3341199,166.558697 Z M79.4325126,62.1942229 C71.1277791,62.3979596 63.0864692,59.1174816 57.0781792,53.0747011 C51.0698891,47.0319207 47.5869722,38.7220176 47.3958901,29.9736953 L47.3958901,28.6997232 C49.7656191,12.1985399 63.2292862,-9.36684253e-16 79.0721006,0 C94.914915,9.36684253e-16 108.378582,12.1985399 110.748311,28.6997232 C110.941718,37.4479887 107.827559,45.9187619 102.091144,52.2479375 C96.3547289,58.5771131 88.4661331,62.2460427 80.1613457,62.44733 L79.4325126,62.44733 L79.4325126,62.1942229 Z M152.02875,69.3196124 L152.02875,74.653896 L164.026761,74.653896 C166.235534,74.653896 168.026098,76.4450761 168.026098,78.6546087 C168.026098,80.8641413 166.235534,82.6553213 164.026761,82.6553213 L160.027424,82.6553213 L160.027424,93.3238885 L164.026761,93.3238885 C166.235534,93.3238885 168.026098,95.1150686 168.026098,97.3246012 C168.026098,99.5341338 166.235534,101.325314 164.026761,101.325314 L152.02875,101.325314 L152.02875,129.004911 C167.628618,133.034165 177.79988,148.038596 175.769765,164.027154 C173.73965,180.015713 160.14155,192 144.030075,192 C127.918601,192 114.3205,180.015713 112.290385,164.027154 C110.26027,148.038596 120.431533,133.034165 136.031401,129.004911 L136.031401,69.3196124 C136.031401,66.3735689 138.41882,63.9853288 141.363851,63.9853288 L146.6963,63.9853288 C148.110554,63.9853288 149.466883,64.5473321 150.466911,65.5477043 C151.46694,66.5480765 152.02875,67.9048724 152.02875,69.3196124 Z M128.012837,160.013854 C128.012837,168.848945 135.175094,176.011202 144.010186,176.011202 C152.845278,176.011202 160.007535,168.848945 160.007535,160.013854 C160.007535,151.178762 152.845278,144.016505 144.010186,144.016505 C135.175094,144.016505 128.012837,151.178762 128.012837,160.013854 Z"/>
</svg>
