<svg xmlns="http://www.w3.org/2000/svg" xmlns:xlink="http://www.w3.org/1999/xlink" preserveAspectRatio="xMidYMid" width="192" height="192" viewBox="0 0 24 24">
  <defs>
    <style>
      .cls-1 {
        fill: #e9edf0;
        fill-rule: evenodd;
      }
    </style>
  </defs>
  <path d="M22.500,21.000 L1.500,21.000 C0.672,21.000 -0.000,20.328 -0.000,19.500 C-0.000,18.672 0.672,18.000 1.500,18.000 L2.000,18.000 L2.000,4.000 C2.000,3.448 2.448,3.000 3.000,3.000 L21.000,3.000 C21.552,3.000 22.000,3.448 22.000,4.000 L22.000,18.000 L22.500,18.000 C23.328,18.000 24.000,18.672 24.000,19.500 C24.000,20.328 23.328,21.000 22.500,21.000 ZM9.500,20.000 L14.500,20.000 C14.776,20.000 15.000,19.776 15.000,19.500 C15.000,19.224 14.776,19.000 14.500,19.000 L9.500,19.000 C9.224,19.000 9.000,19.224 9.000,19.500 C9.000,19.776 9.224,20.000 9.500,20.000 ZM21.000,5.000 C21.000,4.448 20.552,4.000 20.000,4.000 L4.000,4.000 C3.448,4.000 3.000,4.448 3.000,5.000 L3.000,16.000 C3.000,16.552 3.448,17.000 4.000,17.000 L20.000,17.000 C20.552,17.000 21.000,16.552 21.000,16.000 L21.000,5.000 ZM10.741,10.712 L6.959,13.864 L5.808,12.483 L10.954,8.272 L13.220,10.650 L17.492,7.090 L18.642,8.471 L13.062,13.049 L10.741,10.712 Z" class="cls-1"/>
</svg>
