<svg xmlns="http://www.w3.org/2000/svg" width="32" height="32" viewBox="0 0 32 32">
  <g fill="none" fill-rule="evenodd">
    <path fill="#AFBAC5" d="M16,32 C24.836556,32 32,24.836556 32,16 C32,7.163444 24.836556,0 16,0 C7.163444,0 0,7.163444 0,16 C0,24.836556 7.163444,32 16,32 Z"/>
    <path fill="#FFF" d="M19,15 L19,13 L19,13 C19,11.3431458 17.6568542,10 16,10 C14.3431458,10 13,11.3431458 13,13 L13,13 L13,15 L11,15 L11,13 C11,10.2385763 13.2385763,8 16,8 C18.7614237,8 21,10.2385763 21,13 L21,15 L19,15 L19,15 Z"/>
    <path fill="#FFF" d="M10,14 L22,14 C22.5522847,14 23,14.4477153 23,15 L23,23 C23,23.5522847 22.5522847,24 22,24 L10,24 C9.44771525,24 9,23.5522847 9,23 L9,15 C9,14.4477153 9.44771525,14 10,14 Z M16.5,19.283 L16.5,19.283 C16.9481316,19.0945559 17.2407975,18.6571305 17.244,18.171 C17.244,17.4806441 16.6843559,16.921 15.994,16.921 C15.3036441,16.921 14.744,17.4806441 14.744,18.171 C14.7472949,18.656809 15.0394353,19.0940367 15.487,19.283 L14.744,21.823 L17.244,21.823 L16.5,19.283 Z"/>
  </g>
</svg>
