<?xml version="1.0" encoding="UTF-8" standalone="no"?>
<svg width="16px" height="16px" viewBox="0 0 16 16" version="1.1" xmlns="http://www.w3.org/2000/svg" xmlns:xlink="http://www.w3.org/1999/xlink">
    <!-- Generator: Sketch 44 (41411) - http://www.bohemiancoding.com/sketch -->
    <title>tableview</title>
    <desc>Created with Sketch.</desc>
    <defs></defs>
    <g id="Page-1" stroke="none" stroke-width="1" fill="none" fill-rule="evenodd">
        <g id="tableview" fill-rule="nonzero" fill="#000000">
            <path d="M6,11 L15,11 L15,15 L6,15 L6,11 Z M6,6 L15,6 L15,10 L6,10 L6,6 Z M6,1 L15,1 L15,5 L6,5 L6,1 Z M1,11 L5,11 L5,15 L1,15 L1,11 Z M1,6 L5,6 L5,10 L1,10 L1,6 Z M1,1 L5,1 L5,5 L1,5 L1,1 Z" id="func_tableview16"></path>
        </g>
    </g>
</svg>