<?xml version="1.0" encoding="UTF-8" standalone="no"?>
<svg width="16px" height="16px" viewBox="0 0 16 16" version="1.1" xmlns="http://www.w3.org/2000/svg" xmlns:xlink="http://www.w3.org/1999/xlink">
    <!-- Generator: Sketch 44 (41411) - http://www.bohemiancoding.com/sketch -->
    <title>icon/functional/trash_can/16</title>
    <desc>Created with Sketch.</desc>
    <defs></defs>
    <g id="Symbols" stroke="none" stroke-width="1" fill="none" fill-rule="evenodd">
        <g id="icon/functional/trash_can/16" fill-rule="nonzero" fill="#000000">
            <path d="M2,6 L2,4.4 C2.01280426,3.68740091 2.58740091,3.11280426 3.3,3.1 L5,3.1 L5,1.3 C4.94694514,0.637955409 5.43830556,0.057256722 6.1,-1.34114941e-16 L9.9,-1.34114941e-16 C10.5419243,0.0941297237 11.0134182,0.651349719 11,1.3 L11,3 L12.7,3 C13.4125991,3.01280426 13.9871957,3.58740091 14,4.3 L14,6 L2,6 Z M8.7,1 L7.3,1 C7.02421583,0.946568023 6.75674901,1.12487923 6.7,1.4 L6.7,3 L9.4,3 L9.4,1.7 C9.44566535,1.50383481 9.38684426,1.29799292 9.24442567,1.15557433 C9.10200708,1.01315574 8.89616519,0.954334649 8.7,1 L8.7,1 Z M12,15.3 C12.0042935,15.4814221 11.9363157,15.6571144 11.8110308,15.7884009 C11.685746,15.9196873 11.5134245,15.9958058 11.332,16 L4.7,16 C4.51857787,16.0042935 4.34288562,15.9363157 4.21159914,15.8110308 C4.08031266,15.685746 4.00419418,15.5134245 4,15.332 L4,15.3 L4,7.1 L12,7.1 L12,15.3 L12,15.3 Z" id="func_trash_16"></path>
        </g>
    </g>
</svg>